<svg width="18" height="18" viewBox="0 0 18 18" fill="none" xmlns="http://www.w3.org/2000/svg">
<g clip-path="url(#clip0_641_5002)">
<path d="M14.2654 2.46177C12.653 1.16087 10.6165 0.502203 8.54772 0.612498C6.47892 0.722793 4.52399 1.59426 3.05906 3.05922C1.59414 4.52417 0.722729 6.47913 0.612487 8.54793C0.502244 10.6167 1.16096 12.6532 2.4619 14.2656L14.2654 2.46177ZM12.394 2.63607L12.8185 2.21187C12.8462 2.18321 12.8793 2.16036 12.9159 2.14464C12.9525 2.12891 12.9918 2.12064 13.0317 2.12029C13.0715 2.11995 13.111 2.12754 13.1479 2.14262C13.1848 2.1577 13.2183 2.17998 13.2464 2.20815C13.2746 2.23632 13.2969 2.26981 13.3119 2.30668C13.327 2.34355 13.3346 2.38305 13.3343 2.42289C13.3339 2.46272 13.3257 2.50209 13.3099 2.53869C13.2942 2.57529 13.2714 2.60839 13.2427 2.63607L12.8185 3.05997C12.7906 3.08784 12.7576 3.10995 12.7212 3.12505C12.6848 3.14014 12.6458 3.14791 12.6064 3.14793C12.567 3.14794 12.5279 3.14019 12.4915 3.12513C12.4551 3.11006 12.422 3.08797 12.3942 3.06012C12.3663 3.03226 12.3442 2.99919 12.3291 2.96279C12.314 2.92639 12.3062 2.88738 12.3062 2.84797C12.3062 2.80857 12.3139 2.76955 12.329 2.73314C12.3441 2.69673 12.3661 2.66394 12.394 2.63607ZM11.1214 3.90867L11.5456 3.48447C11.5735 3.45659 11.6065 3.43448 11.6429 3.41939C11.6793 3.40429 11.7183 3.39652 11.7577 3.39651C11.7971 3.39649 11.8362 3.40424 11.8726 3.41931C11.909 3.43437 11.9421 3.45646 11.97 3.48432C11.9978 3.51217 12.0199 3.54524 12.035 3.58164C12.0501 3.61804 12.0579 3.65706 12.0579 3.69646C12.0579 3.73587 12.0502 3.77489 12.0351 3.8113C12.02 3.84771 11.998 3.88079 11.9701 3.90867L11.5459 4.33287C11.5182 4.36152 11.4851 4.38437 11.4485 4.4001C11.4119 4.41582 11.3726 4.4241 11.3327 4.42444C11.2929 4.42479 11.2534 4.4172 11.2165 4.40211C11.1796 4.38703 11.1462 4.36475 11.118 4.33659C11.0898 4.30842 11.0675 4.27492 11.0525 4.23805C11.0374 4.20118 11.0298 4.16168 11.0301 4.12185C11.0305 4.08201 11.0387 4.04265 11.0545 4.00605C11.0702 3.96944 11.0927 3.93634 11.1214 3.90867ZM9.8485 5.18127L10.273 4.75707C10.3293 4.70081 10.4056 4.66923 10.4852 4.66926C10.5648 4.66928 10.6411 4.70092 10.6974 4.75722C10.7536 4.81351 10.7852 4.88984 10.7852 4.96942C10.7851 5.049 10.7535 5.12531 10.6972 5.18157L10.2727 5.60607C10.2164 5.66232 10.14 5.69389 10.0604 5.69383C9.98078 5.69378 9.90445 5.6621 9.8482 5.60577C9.79195 5.54944 9.76038 5.47306 9.76043 5.39345C9.76049 5.31385 9.79217 5.23752 9.8485 5.18127ZM8.5759 6.45447L9.0001 6.02997C9.05668 5.97532 9.13246 5.94508 9.21112 5.94576C9.28978 5.94645 9.36502 5.978 9.42065 6.03362C9.47627 6.08924 9.50782 6.16449 9.5085 6.24315C9.50919 6.32181 9.47895 6.39759 9.4243 6.45417L9.0001 6.87867C8.97243 6.90732 8.93932 6.93017 8.90272 6.9459C8.86612 6.96162 8.82676 6.9699 8.78692 6.97024C8.74709 6.97059 8.70758 6.963 8.67071 6.94791C8.63385 6.93283 8.60035 6.91055 8.57218 6.88239C8.54401 6.85422 8.52174 6.82072 8.50665 6.78385C8.49157 6.74698 8.48398 6.70748 8.48433 6.66765C8.48467 6.62781 8.49295 6.58845 8.50867 6.55185C8.52439 6.51524 8.54725 6.48214 8.5759 6.45447ZM7.303 7.72707L7.7275 7.30287C7.75537 7.27501 7.78846 7.25292 7.82487 7.23786C7.86128 7.22279 7.9003 7.21504 7.93971 7.21506C7.97911 7.21507 8.01813 7.22285 8.05453 7.23794C8.09093 7.25303 8.124 7.27514 8.15185 7.30302C8.1797 7.33089 8.2018 7.36398 8.21686 7.40039C8.23193 7.4368 8.23968 7.47582 8.23966 7.51522C8.23965 7.55463 8.23187 7.59364 8.21678 7.63004C8.20169 7.66644 8.17957 7.69951 8.1517 7.72737L7.7272 8.15157C7.67091 8.20782 7.59458 8.23941 7.51499 8.23938C7.43541 8.23935 7.3591 8.20771 7.30285 8.15142C7.2466 8.09512 7.21501 8.01879 7.21504 7.93921C7.21507 7.85963 7.24671 7.78332 7.303 7.72707ZM6.0301 8.99997L6.4543 8.57577C6.48215 8.54789 6.51523 8.52578 6.55162 8.51069C6.58802 8.4956 6.62704 8.48782 6.66644 8.48781C6.70585 8.48779 6.74487 8.49554 6.78128 8.51061C6.81769 8.52567 6.85078 8.54776 6.87865 8.57562C6.90652 8.60347 6.92864 8.63654 6.94373 8.67294C6.95882 8.70934 6.9666 8.74836 6.96661 8.78776C6.96663 8.82717 6.95888 8.86619 6.94381 8.9026C6.92875 8.93901 6.90665 8.97209 6.8788 8.99997L6.4546 9.42417C6.39835 9.48046 6.32204 9.5121 6.24246 9.51213C6.16288 9.51216 6.08654 9.48057 6.03025 9.42432C5.97396 9.36806 5.94232 9.29175 5.94229 9.21217C5.94226 9.13259 5.97385 9.05626 6.0301 8.99997ZM4.7572 10.2729L5.1814 9.84837C5.20925 9.82049 5.24233 9.79838 5.27872 9.78329C5.31512 9.7682 5.35414 9.76042 5.39354 9.76041C5.43295 9.76039 5.47197 9.76814 5.50838 9.78321C5.54479 9.79827 5.57788 9.82036 5.60575 9.84822C5.63362 9.87607 5.65574 9.90914 5.67083 9.94554C5.68592 9.98194 5.6937 10.021 5.69371 10.0604C5.69373 10.0998 5.68598 10.1388 5.67091 10.1752C5.65585 10.2116 5.63375 10.2447 5.6059 10.2726L5.1814 10.6971C5.15373 10.7257 5.12062 10.7486 5.08402 10.7643C5.04742 10.78 5.00806 10.7883 4.96822 10.7886C4.92839 10.789 4.88888 10.7814 4.85201 10.7663C4.81515 10.7512 4.78165 10.729 4.75348 10.7008C4.72531 10.6726 4.70304 10.6391 4.68795 10.6023C4.67287 10.5654 4.66528 10.5259 4.66563 10.486C4.66597 10.4462 4.67425 10.4068 4.68997 10.3702C4.70569 10.3336 4.72855 10.3005 4.7572 10.2729ZM3.4843 11.5455L3.9085 11.1213C3.93617 11.0926 3.96928 11.0698 4.00588 11.054C4.04248 11.0383 4.08185 11.03 4.12168 11.0297C4.16151 11.0293 4.20102 11.0369 4.23789 11.052C4.27476 11.0671 4.30825 11.0894 4.33642 11.1175C4.36459 11.1457 4.38686 11.1792 4.40195 11.2161C4.41703 11.253 4.42462 11.2925 4.42428 11.3323C4.42393 11.3721 4.41565 11.4115 4.39993 11.4481C4.38421 11.4847 4.36135 11.5178 4.3327 11.5455L3.9088 11.97C3.88113 11.9986 3.84802 12.0215 3.81142 12.0372C3.77482 12.0529 3.73546 12.0612 3.69562 12.0615C3.65579 12.0619 3.61628 12.0543 3.57941 12.0392C3.54255 12.0241 3.50905 12.0019 3.48088 11.9737C3.45271 11.9455 3.43044 11.912 3.41535 11.8752C3.40027 11.8383 3.39268 11.7988 3.39303 11.7589C3.39337 11.7191 3.40165 11.6797 3.41737 11.6431C3.43309 11.6065 3.45595 11.5734 3.4846 11.5458L3.4843 11.5455ZM2.212 13.2426C2.15576 13.1863 2.12416 13.11 2.12416 13.0305C2.12416 12.9509 2.15576 12.8746 2.212 12.8184L2.6362 12.3939C2.6639 12.3652 2.69701 12.3424 2.73363 12.3267C2.77024 12.311 2.80961 12.3028 2.84944 12.3024C2.88928 12.3021 2.92878 12.3097 2.96563 12.3249C3.00249 12.34 3.03597 12.3623 3.06412 12.3905C3.09227 12.4186 3.11452 12.4522 3.12958 12.489C3.14463 12.5259 3.1522 12.5654 3.15182 12.6053C3.15145 12.6451 3.14315 12.6844 3.1274 12.721C3.11165 12.7576 3.08877 12.7907 3.0601 12.8184L2.6362 13.2426C2.57994 13.2988 2.50365 13.3304 2.4241 13.3304C2.34455 13.3304 2.26826 13.2988 2.212 13.2426Z" fill="black"/>
<path d="M3.28065 15.144L15.1444 3.28016C15.0084 3.13336 14.867 2.99196 14.7202 2.85596L2.85645 14.7198C2.99245 14.8666 3.13385 15.008 3.28065 15.144Z" fill="black"/>
<path d="M3.73438 15.5382C5.34672 16.8394 7.38334 17.4983 9.45232 17.3882C11.5213 17.278 13.4764 16.4066 14.9415 14.9415C16.4066 13.4764 17.278 11.5213 17.3882 9.45232C17.4983 7.38334 16.8394 5.34672 15.5382 3.73438L3.73438 15.5382ZM5.60608 15.3639L5.18158 15.7881C5.1539 15.8167 5.1208 15.8396 5.0842 15.8553C5.0476 15.871 5.00823 15.8793 4.9684 15.8797C4.92856 15.88 4.88906 15.8724 4.85219 15.8573C4.81532 15.8422 4.78182 15.82 4.75366 15.7918C4.72549 15.7636 4.70321 15.7301 4.68813 15.6933C4.67304 15.6564 4.66545 15.6169 4.6658 15.5771C4.66615 15.5372 4.67442 15.4979 4.69014 15.4613C4.70587 15.4247 4.72872 15.3916 4.75738 15.3639L5.18158 14.94C5.20943 14.9121 5.2425 14.89 5.2789 14.8749C5.3153 14.8598 5.35431 14.852 5.39372 14.852C5.43312 14.852 5.47215 14.8597 5.50856 14.8748C5.54497 14.8899 5.57805 14.912 5.60593 14.9398C5.6338 14.9677 5.65591 15.0008 5.671 15.0371C5.6861 15.0735 5.69387 15.1126 5.69389 15.152C5.6939 15.1914 5.68615 15.2304 5.67109 15.2668C5.65602 15.3032 5.63393 15.336 5.60608 15.3639ZM6.87868 14.0913L6.45448 14.5155C6.39822 14.5718 6.32191 14.6034 6.24233 14.6034C6.16275 14.6035 6.08642 14.5719 6.03013 14.5156C5.97383 14.4594 5.94219 14.3831 5.94216 14.3035C5.94214 14.2239 5.97372 14.1476 6.02998 14.0913L6.45418 13.6671C6.48185 13.6384 6.51495 13.6156 6.55155 13.5998C6.58816 13.5841 6.62752 13.5758 6.66735 13.5755C6.70719 13.5752 6.74669 13.5827 6.78356 13.5978C6.82043 13.6129 6.85393 13.6352 6.88209 13.6634C6.91026 13.6915 6.93254 13.725 6.94762 13.7619C6.96271 13.7988 6.9703 13.8383 6.96995 13.8781C6.9696 13.9179 6.96133 13.9573 6.94561 13.9939C6.92988 14.0305 6.90703 14.0636 6.87838 14.0913H6.87868ZM8.15158 12.8184L7.72708 13.2426C7.67049 13.2972 7.59471 13.3275 7.51606 13.3268C7.4374 13.3261 7.36215 13.2945 7.30653 13.2389C7.25091 13.1833 7.21936 13.1081 7.21867 13.0294C7.21799 12.9507 7.24823 12.875 7.30288 12.8184L7.72738 12.3939C7.75525 12.366 7.78833 12.3439 7.82475 12.3289C7.86116 12.3138 7.90018 12.3061 7.93958 12.3061C7.97899 12.3061 8.018 12.3139 8.0544 12.3289C8.0908 12.344 8.12387 12.3662 8.15173 12.394C8.17958 12.4219 8.20167 12.455 8.21674 12.4914C8.2318 12.5278 8.23955 12.5668 8.23954 12.6062C8.23952 12.6456 8.23175 12.6847 8.21666 12.7211C8.20156 12.7575 8.17945 12.7905 8.15158 12.8184ZM9.42418 11.5455L8.99998 11.97C8.9434 12.0246 8.86761 12.0549 8.78896 12.0542C8.7103 12.0535 8.63505 12.0219 8.57943 11.9663C8.52381 11.9107 8.49226 11.8355 8.49157 11.7568C8.49089 11.6781 8.52113 11.6024 8.57578 11.5458L8.99998 11.1213C9.05656 11.0666 9.13234 11.0364 9.211 11.0371C9.28966 11.0378 9.3649 11.0693 9.42052 11.1249C9.47614 11.1806 9.50769 11.2558 9.50838 11.3345C9.50906 11.4131 9.47882 11.4889 9.42418 11.5455ZM10.6971 10.2726L10.2726 10.6971C10.2449 10.7257 10.2118 10.7486 10.1752 10.7643C10.1386 10.78 10.0992 10.7883 10.0594 10.7887C10.0196 10.789 9.98006 10.7814 9.94319 10.7663C9.90632 10.7512 9.87283 10.729 9.84466 10.7008C9.81649 10.6726 9.79421 10.6391 9.77913 10.6023C9.76405 10.5654 9.75645 10.5259 9.7568 10.4861C9.75715 10.4462 9.76542 10.4069 9.78114 10.3703C9.79687 10.3337 9.81972 10.3005 9.84838 10.2729L10.2729 9.84838C10.3005 9.81972 10.3337 9.79687 10.3703 9.78114C10.4069 9.76542 10.4462 9.75715 10.4861 9.7568C10.5259 9.75645 10.5654 9.76405 10.6023 9.77913C10.6391 9.79421 10.6726 9.81649 10.7008 9.84466C10.729 9.87283 10.7512 9.90632 10.7663 9.94319C10.7814 9.98006 10.789 10.0196 10.7887 10.0594C10.7883 10.0992 10.78 10.1386 10.7643 10.1752C10.7486 10.2118 10.7257 10.2449 10.6971 10.2726ZM11.97 8.99998L11.5458 9.42418C11.4895 9.48047 11.4132 9.51211 11.3336 9.51214C11.2541 9.51216 11.1777 9.48058 11.1214 9.42433C11.0651 9.36807 11.0335 9.29176 11.0335 9.21218C11.0334 9.1326 11.065 9.05627 11.1213 8.99998L11.5455 8.57578C11.6017 8.51948 11.678 8.48784 11.7576 8.48781C11.8372 8.48779 11.9135 8.51937 11.9698 8.57563C12.0261 8.63188 12.0578 8.70819 12.0578 8.78777C12.0578 8.86735 12.0262 8.94368 11.97 8.99998ZM13.2429 7.72708L12.8187 8.15128C12.7908 8.17915 12.7578 8.20126 12.7214 8.21636C12.685 8.23145 12.6459 8.23922 12.6065 8.23924C12.5671 8.23925 12.5281 8.2315 12.4917 8.21644C12.4553 8.20137 12.4222 8.17928 12.3943 8.15143C12.3665 8.12357 12.3443 8.0905 12.3292 8.0541C12.3142 8.0177 12.3064 7.97869 12.3064 7.93928C12.3064 7.89988 12.3141 7.86086 12.3292 7.82445C12.3442 7.78803 12.3663 7.75495 12.3942 7.72708L12.8187 7.30288C12.8753 7.24823 12.951 7.21799 13.0297 7.21867C13.1084 7.21936 13.1836 7.25091 13.2392 7.30653C13.2948 7.36215 13.3264 7.4374 13.3271 7.51606C13.3278 7.59471 13.2975 7.67049 13.2429 7.72708ZM14.5158 6.45448L14.0916 6.87868C14.0639 6.90733 14.0308 6.93018 13.9942 6.94591C13.9576 6.96163 13.9182 6.9699 13.8784 6.97025C13.8386 6.9706 13.7991 6.96301 13.7622 6.94792C13.7253 6.93284 13.6918 6.91056 13.6637 6.88239C13.6355 6.85423 13.6132 6.82073 13.5981 6.78386C13.583 6.74699 13.5755 6.70749 13.5758 6.66766C13.5761 6.62782 13.5844 6.58846 13.6001 6.55185C13.6159 6.51525 13.6387 6.48215 13.6674 6.45448L14.0913 6.02998C14.1479 5.97533 14.2236 5.94509 14.3023 5.94577C14.381 5.94646 14.4562 5.97801 14.5118 6.03363C14.5674 6.08925 14.599 6.1645 14.5997 6.24315C14.6004 6.32181 14.5701 6.39759 14.5155 6.45418L14.5158 6.45448ZM15.7884 4.75738C15.8446 4.81363 15.8762 4.88993 15.8762 4.96948C15.8762 5.04902 15.8446 5.12532 15.7884 5.18158L15.3642 5.60578C15.3076 5.66042 15.2318 5.69066 15.1532 5.68998C15.0745 5.68929 14.9993 5.65774 14.9436 5.60212C14.888 5.5465 14.8565 5.47125 14.8558 5.3926C14.8551 5.31394 14.8853 5.23816 14.94 5.18158L15.3642 4.75738C15.4204 4.70123 15.4967 4.66969 15.5761 4.66969C15.6556 4.66969 15.7321 4.70123 15.7884 4.75738Z" fill="black"/>
</g>
<defs>
<clipPath id="clip0_641_5002">
<rect width="18" height="18" fill="white"/>
</clipPath>
</defs>
</svg>
