<svg width="24" height="24" viewBox="0 0 24 24" fill="none" xmlns="http://www.w3.org/2000/svg">
<g clip-path="url(#clip0_641_4934)">
<path d="M16.7011 5.97239L13.6377 10.3618L18.0271 7.29839L19.5053 5.82014L18.1793 4.49414L16.7011 5.97239Z" fill="black"/>
<path d="M18.708 3.96631L20.4316 2.24274L21.7574 3.56856L20.0338 5.29213L18.708 3.96631Z" fill="black"/>
<path d="M23.3509 0.649675C23.2638 0.562594 23.1605 0.493516 23.0467 0.446387C22.933 0.399257 22.811 0.375 22.6879 0.375C22.5648 0.375 22.4428 0.399257 22.3291 0.446387C22.2153 0.493516 22.1119 0.562594 22.0249 0.649675L20.9629 1.71055L22.29 3.03767L23.3509 1.97717C23.4382 1.89009 23.5075 1.78663 23.5547 1.67274C23.602 1.55884 23.6263 1.43674 23.6263 1.31342C23.6263 1.19011 23.602 1.06801 23.5547 0.954112C23.5075 0.840215 23.4382 0.73676 23.3509 0.649675Z" fill="black"/>
<path d="M18.1579 8.12264L12.342 12.1805C12.2698 12.2308 12.1822 12.254 12.0946 12.2462C12.0069 12.2384 11.9248 12.2001 11.8626 12.1379C11.8004 12.0757 11.7621 11.9936 11.7543 11.9059C11.7465 11.8183 11.7697 11.7307 11.82 11.6585L15.8779 5.84264L14.9374 5.69264C14.7037 5.65577 14.4646 5.67471 14.2396 5.7479C14.0146 5.82109 13.8101 5.94646 13.6429 6.11376L0.705361 19.0513C0.494456 19.2622 0.375977 19.5483 0.375977 19.8466C0.375977 20.1449 0.494456 20.431 0.705361 20.642L3.35661 23.2955C3.56758 23.5064 3.85368 23.6249 4.15199 23.6249C4.4503 23.6249 4.73639 23.5064 4.94736 23.2955L17.8849 10.358C18.0522 10.1907 18.1775 9.98626 18.2507 9.76129C18.3239 9.53631 18.3429 9.29721 18.306 9.06351L18.1579 8.12264Z" fill="black"/>
</g>
<defs>
<clipPath id="clip0_641_4934">
<rect width="24" height="24" fill="white"/>
</clipPath>
</defs>
</svg>
