<svg width="24" height="24" viewBox="0 0 24 24" fill="none" xmlns="http://www.w3.org/2000/svg">
<g clip-path="url(#clip0_641_5223)">
<path d="M16.7011 5.97239L13.6377 10.3618L18.0271 7.29839L19.5053 5.82014L18.1793 4.49414L16.7011 5.97239Z" fill="black"/>
<path d="M18.708 3.96631L20.4316 2.24274L21.7574 3.56856L20.0338 5.29213L18.708 3.96631Z" fill="black"/>
<path d="M23.3509 0.649675C23.2638 0.562594 23.1605 0.493516 23.0467 0.446387C22.933 0.399257 22.811 0.375 22.6879 0.375C22.5648 0.375 22.4428 0.399257 22.3291 0.446387C22.2153 0.493516 22.1119 0.562594 22.0249 0.649675L20.9629 1.71055L22.29 3.03767L23.3509 1.97717C23.4382 1.89009 23.5075 1.78663 23.5547 1.67274C23.602 1.55884 23.6263 1.43674 23.6263 1.31342C23.6263 1.19011 23.602 1.06801 23.5547 0.954112C23.5075 0.840215 23.4382 0.73676 23.3509 0.649675Z" fill="black"/>
<path d="M18.1579 8.12264L12.342 12.1805C12.2698 12.2308 12.1822 12.254 12.0946 12.2462C12.0069 12.2384 11.9248 12.2001 11.8626 12.1379C11.8004 12.0757 11.7621 11.9936 11.7543 11.9059C11.7465 11.8183 11.7697 11.7307 11.82 11.6585L15.8779 5.84264L14.9374 5.69264C14.7037 5.65577 14.4646 5.67471 14.2396 5.7479C14.0146 5.82109 13.8101 5.94646 13.6429 6.11376L0.705361 19.0513C0.494456 19.2622 0.375977 19.5483 0.375977 19.8466C0.375977 20.1449 0.494456 20.431 0.705361 20.642L3.35661 23.2955C3.56758 23.5064 3.85368 23.6249 4.15199 23.6249C4.4503 23.6249 4.73639 23.5064 4.94736 23.2955L17.8849 10.358C18.0522 10.1907 18.1775 9.98626 18.2507 9.76129C18.3239 9.53631 18.3429 9.29721 18.306 9.06351L18.1579 8.12264Z" fill="black"/>
<g clip-path="url(#clip1_641_5223)">
<path d="M9.54749 1.95719C8.92046 1.45129 8.12848 1.19514 7.32395 1.23803C6.51942 1.28092 5.75916 1.61983 5.18947 2.18953C4.61978 2.75924 4.2809 3.5195 4.23803 4.32403C4.19515 5.12857 4.45132 5.92053 4.95724 6.54756L9.54749 1.95719ZM8.81973 2.02497L8.98481 1.86001C8.99557 1.84886 9.00845 1.83998 9.02268 1.83386C9.03691 1.82775 9.05222 1.82453 9.06771 1.8244C9.0832 1.82426 9.09857 1.82721 9.1129 1.83308C9.12724 1.83894 9.14027 1.84761 9.15122 1.85856C9.16218 1.86952 9.17084 1.88254 9.17671 1.89688C9.18257 1.91122 9.18552 1.92658 9.18539 1.94207C9.18525 1.95756 9.18204 1.97287 9.17592 1.9871C9.16981 2.00134 9.16092 2.01421 9.14978 2.02497L8.98481 2.18982C8.97398 2.20066 8.96112 2.20926 8.94696 2.21513C8.93281 2.221 8.91763 2.22403 8.90231 2.22403C8.88699 2.22404 8.87181 2.22102 8.85765 2.21516C8.84349 2.20931 8.83062 2.20071 8.81978 2.18988C8.80895 2.17905 8.80035 2.16619 8.79448 2.15203C8.78861 2.13788 8.78558 2.12271 8.78558 2.10738C8.78557 2.09206 8.78859 2.07688 8.79444 2.06272C8.8003 2.04856 8.80889 2.03581 8.81973 2.02497ZM8.32483 2.51987L8.48979 2.35491C8.50063 2.34407 8.51349 2.33547 8.52764 2.3296C8.5418 2.32373 8.55697 2.32071 8.57229 2.3207C8.58762 2.3207 8.60279 2.32371 8.61695 2.32957C8.63111 2.33543 8.64398 2.34402 8.65482 2.35485C8.66566 2.36568 8.67426 2.37854 8.68013 2.3927C8.686 2.40685 8.68902 2.42203 8.68903 2.43735C8.68903 2.45267 8.68602 2.46785 8.68016 2.48201C8.6743 2.49617 8.66571 2.50903 8.65488 2.51987L8.48991 2.68484C8.47915 2.69598 8.46627 2.70487 8.45204 2.71099C8.43781 2.7171 8.4225 2.72032 8.40701 2.72045C8.39152 2.72059 8.37615 2.71764 8.36182 2.71177C8.34748 2.7059 8.33445 2.69724 8.3235 2.68629C8.31254 2.67533 8.30388 2.66231 8.29801 2.64797C8.29215 2.63363 8.2892 2.61827 8.28933 2.60278C8.28947 2.58729 8.29268 2.57198 8.2988 2.55774C8.30491 2.54351 8.31368 2.53064 8.32483 2.51987ZM7.82981 3.01477L7.99489 2.84981C8.01678 2.82793 8.04647 2.81565 8.07742 2.81566C8.10837 2.81567 8.13804 2.82797 8.15992 2.84987C8.18179 2.87176 8.19408 2.90144 8.19407 2.93239C8.19406 2.96334 8.18175 2.99301 8.15986 3.01489L7.99478 3.17997C7.97287 3.20185 7.94317 3.21413 7.91221 3.21411C7.88125 3.21408 7.85157 3.20176 7.82969 3.17986C7.80782 3.15795 7.79554 3.12825 7.79556 3.09729C7.79558 3.06633 7.8079 3.03665 7.82981 3.01477ZM7.33491 3.50991L7.49988 3.34482C7.52188 3.32357 7.55135 3.31181 7.58194 3.31208C7.61253 3.31235 7.64179 3.32461 7.66342 3.34625C7.68505 3.36788 7.69732 3.39714 7.69759 3.42773C7.69785 3.45832 7.68609 3.48779 7.66484 3.50979L7.49988 3.67487C7.48911 3.68602 7.47624 3.69491 7.46201 3.70102C7.44777 3.70713 7.43246 3.71035 7.41697 3.71049C7.40148 3.71062 7.38612 3.70767 7.37178 3.7018C7.35744 3.69594 7.34442 3.68727 7.33346 3.67632C7.32251 3.66537 7.31385 3.65234 7.30798 3.638C7.30211 3.62366 7.29916 3.6083 7.2993 3.59281C7.29943 3.57732 7.30265 3.56201 7.30876 3.54778C7.31488 3.53354 7.32377 3.52067 7.33491 3.50991ZM6.83989 4.00481L7.00498 3.83984C7.01582 3.82901 7.02868 3.82042 7.04284 3.81456C7.057 3.8087 7.07218 3.80569 7.0875 3.80569C7.10282 3.8057 7.118 3.80872 7.13215 3.81459C7.14631 3.82046 7.15917 3.82906 7.17 3.8399C7.18083 3.85074 7.18942 3.86361 7.19528 3.87777C7.20114 3.89193 7.20416 3.9071 7.20415 3.92242C7.20414 3.93775 7.20112 3.95292 7.19525 3.96708C7.18938 3.98123 7.18078 3.99409 7.16994 4.00492L7.00486 4.16989C6.98297 4.19177 6.95328 4.20405 6.92234 4.20404C6.89139 4.20403 6.86171 4.19172 6.83983 4.16983C6.81796 4.14794 6.80568 4.11826 6.80569 4.08731C6.8057 4.05636 6.818 4.02668 6.83989 4.00481ZM6.34488 4.49982L6.50984 4.33486C6.52067 4.32402 6.53354 4.31542 6.54769 4.30955C6.56185 4.30368 6.57702 4.30066 6.59234 4.30065C6.60767 4.30065 6.62284 4.30366 6.637 4.30952C6.65116 4.31538 6.66403 4.32397 6.67487 4.3348C6.68571 4.34563 6.69431 4.35849 6.70018 4.37265C6.70605 4.3868 6.70907 4.40198 6.70908 4.4173C6.70908 4.43262 6.70607 4.4478 6.70021 4.46196C6.69435 4.47612 6.68576 4.48899 6.67493 4.49982L6.50996 4.66479C6.48808 4.68668 6.45841 4.69899 6.42746 4.699C6.39651 4.69901 6.36683 4.68673 6.34493 4.66485C6.32304 4.64297 6.31074 4.6133 6.31073 4.58235C6.31072 4.5514 6.323 4.52172 6.34488 4.49982ZM5.84986 4.99484L6.01483 4.82976C6.02566 4.81892 6.03852 4.81032 6.05267 4.80445C6.06683 4.79858 6.082 4.79556 6.09733 4.79555C6.11265 4.79555 6.12783 4.79856 6.14199 4.80442C6.15615 4.81028 6.16901 4.81887 6.17985 4.8297C6.19069 4.84053 6.19929 4.85339 6.20516 4.86755C6.21103 4.8817 6.21405 4.89688 6.21406 4.9122C6.21406 4.92752 6.21105 4.9427 6.20519 4.95686C6.19933 4.97102 6.19074 4.98389 6.17991 4.99472L6.01483 5.15981C6.00406 5.17095 5.99119 5.17984 5.97696 5.18595C5.96272 5.19207 5.94741 5.19529 5.93192 5.19542C5.91643 5.19556 5.90107 5.1926 5.88673 5.18674C5.87239 5.18087 5.85937 5.17221 5.84841 5.16125C5.83746 5.1503 5.8288 5.13727 5.82293 5.12294C5.81706 5.1086 5.81411 5.09324 5.81425 5.07774C5.81438 5.06225 5.8176 5.04694 5.82371 5.03271C5.82983 5.01848 5.83872 5.0056 5.84986 4.99484ZM5.35484 5.48974L5.51981 5.32477C5.53057 5.31363 5.54345 5.30474 5.55768 5.29863C5.57191 5.29251 5.58722 5.2893 5.60271 5.28916C5.6182 5.28903 5.63357 5.29198 5.6479 5.29785C5.66224 5.30371 5.67527 5.31237 5.68622 5.32333C5.69718 5.33428 5.70584 5.34731 5.71171 5.36165C5.71757 5.37598 5.72052 5.39135 5.72039 5.40684C5.72025 5.42233 5.71704 5.43764 5.71092 5.45187C5.70481 5.46611 5.69592 5.47898 5.68478 5.48974L5.51993 5.65482C5.50916 5.66597 5.49629 5.67486 5.48206 5.68097C5.46782 5.68708 5.45251 5.6903 5.43702 5.69044C5.42153 5.69057 5.40617 5.68762 5.39183 5.68175C5.37749 5.67589 5.36447 5.66722 5.35351 5.65627C5.34256 5.64532 5.3339 5.63229 5.32803 5.61795C5.32216 5.60361 5.31921 5.58825 5.31935 5.57276C5.31948 5.55727 5.3227 5.54196 5.32881 5.52773C5.33493 5.51349 5.34382 5.50062 5.35496 5.48986L5.35484 5.48974ZM4.86006 6.14972C4.83819 6.12785 4.8259 6.09818 4.8259 6.06724C4.8259 6.03631 4.83819 6.00664 4.86006 5.98476L5.02503 5.81967C5.0358 5.80854 5.04868 5.79966 5.06291 5.79356C5.07715 5.78745 5.09246 5.78425 5.10795 5.78412C5.12345 5.784 5.13881 5.78696 5.15314 5.79284C5.16747 5.79871 5.18049 5.80739 5.19144 5.81835C5.20239 5.82931 5.21104 5.84234 5.21689 5.85668C5.22275 5.87102 5.22569 5.88639 5.22555 5.90188C5.2254 5.91737 5.22217 5.93268 5.21605 5.94691C5.20992 5.96114 5.20103 5.974 5.18988 5.98476L5.02503 6.14972C5.00315 6.1716 4.97348 6.18388 4.94254 6.18388C4.91161 6.18388 4.88194 6.1716 4.86006 6.14972Z" fill="black"/>
<path d="M5.27532 6.88951L9.88902 2.27581C9.83613 2.21872 9.78114 2.16373 9.72405 2.11084L5.11035 6.72454C5.16324 6.78163 5.21823 6.83662 5.27532 6.88951Z" fill="black"/>
<path d="M5.45215 7.04252C6.07917 7.54854 6.87119 7.8048 7.67579 7.76196C8.4804 7.71912 9.24073 7.38022 9.81047 6.81047C10.3802 6.24073 10.7191 5.4804 10.762 4.67579C10.8048 3.87119 10.5485 3.07917 10.0425 2.45215L5.45215 7.04252ZM6.18003 6.97473L6.01495 7.1397C6.00419 7.15084 5.99131 7.15973 5.97708 7.16584C5.96285 7.17196 5.94754 7.17518 5.93205 7.17531C5.91655 7.17545 5.90119 7.17249 5.88685 7.16663C5.87252 7.16076 5.85949 7.1521 5.84854 7.14115C5.83758 7.13019 5.82892 7.11716 5.82305 7.10283C5.81719 7.08849 5.81423 7.07313 5.81437 7.05764C5.8145 7.04214 5.81772 7.02684 5.82384 7.0126C5.82995 6.99837 5.83884 6.98549 5.84998 6.97473L6.01495 6.80988C6.02578 6.79904 6.03864 6.79044 6.0528 6.78457C6.06695 6.7787 6.08213 6.77568 6.09745 6.77568C6.11277 6.77567 6.12795 6.77868 6.14211 6.78454C6.15627 6.7904 6.16913 6.79899 6.17997 6.80982C6.19081 6.82066 6.19941 6.83352 6.20528 6.84767C6.21115 6.86183 6.21418 6.877 6.21418 6.89232C6.21419 6.90765 6.21117 6.92282 6.20531 6.93698C6.19945 6.95114 6.19086 6.96389 6.18003 6.97473ZM6.67493 6.47983L6.50997 6.6448C6.48809 6.66669 6.45841 6.67899 6.42746 6.67901C6.39652 6.67902 6.36683 6.66673 6.34494 6.64486C6.32305 6.62298 6.31074 6.59331 6.31073 6.56236C6.31072 6.53141 6.32301 6.50172 6.34488 6.47983L6.50985 6.31487C6.52061 6.30372 6.53348 6.29483 6.54772 6.28872C6.56195 6.28261 6.57726 6.27939 6.59275 6.27925C6.60824 6.27912 6.62361 6.28207 6.63794 6.28794C6.65228 6.2938 6.66531 6.30247 6.67626 6.31342C6.68722 6.32437 6.69588 6.3374 6.70174 6.35174C6.70761 6.36608 6.71056 6.38144 6.71043 6.39693C6.71029 6.41242 6.70707 6.42773 6.70096 6.44196C6.69485 6.4562 6.68596 6.46907 6.67482 6.47983H6.67493ZM7.16995 5.98482L7.00487 6.14978C6.98286 6.17103 6.95339 6.18279 6.9228 6.18253C6.89221 6.18226 6.86295 6.16999 6.84132 6.14836C6.81969 6.12673 6.80742 6.09747 6.80715 6.06688C6.80689 6.03629 6.81865 6.00682 6.8399 5.98482L7.00498 5.81973C7.01582 5.8089 7.02869 5.80031 7.04285 5.79445C7.05701 5.78859 7.07218 5.78558 7.08751 5.78558C7.10283 5.78559 7.118 5.78861 7.13216 5.79448C7.14631 5.80035 7.15918 5.80895 7.17001 5.81979C7.18084 5.83063 7.18943 5.8435 7.19529 5.85766C7.20115 5.87182 7.20416 5.88699 7.20416 5.90232C7.20415 5.91764 7.20113 5.93281 7.19526 5.94697C7.18939 5.96112 7.18079 5.97398 7.16995 5.98482ZM7.66485 5.4898L7.49988 5.65488C7.47788 5.67613 7.44841 5.68789 7.41782 5.68763C7.38723 5.68736 7.35797 5.67509 7.33634 5.65346C7.31471 5.63183 7.30244 5.60257 7.30217 5.57198C7.3019 5.54139 7.31366 5.51192 7.33492 5.48992L7.49988 5.32483C7.52189 5.30358 7.55136 5.29182 7.58195 5.29209C7.61254 5.29235 7.6418 5.30462 7.66343 5.32625C7.68506 5.34788 7.69733 5.37715 7.69759 5.40774C7.69786 5.43832 7.6861 5.4678 7.66485 5.4898ZM8.15987 4.99478L7.99478 5.15987C7.98402 5.17101 7.97115 5.1799 7.95691 5.18601C7.94268 5.19212 7.92737 5.19534 7.91188 5.19548C7.89639 5.19561 7.88103 5.19266 7.86669 5.18679C7.85235 5.18093 7.83932 5.17227 7.82837 5.16131C7.81742 5.15036 7.80875 5.13733 7.80289 5.12299C7.79702 5.10866 7.79407 5.09329 7.7942 5.0778C7.79434 5.06231 7.79756 5.047 7.80367 5.03277C7.80978 5.01853 7.81867 5.00566 7.82982 4.9949L7.9949 4.82982C8.00566 4.81867 8.01853 4.80978 8.03277 4.80367C8.047 4.79756 8.06231 4.79434 8.0778 4.7942C8.09329 4.79407 8.10866 4.79702 8.12299 4.80289C8.13733 4.80875 8.15036 4.81742 8.16131 4.82837C8.17227 4.83932 8.18093 4.85235 8.18679 4.86669C8.19266 4.88103 8.19561 4.89639 8.19548 4.91188C8.19534 4.92737 8.19212 4.94268 8.18601 4.95691C8.1799 4.97115 8.17101 4.98402 8.15987 4.99478ZM8.65488 4.49988L8.48992 4.66485C8.46804 4.68674 8.43836 4.69904 8.40742 4.69906C8.37647 4.69907 8.34678 4.68678 8.32489 4.66491C8.303 4.64303 8.29069 4.61335 8.29068 4.58241C8.29067 4.55146 8.30296 4.52177 8.32483 4.49988L8.4898 4.33492C8.51167 4.31302 8.54135 4.30072 8.5723 4.30071C8.60325 4.3007 8.63293 4.31298 8.65482 4.33486C8.67672 4.35673 8.68902 4.38641 8.68903 4.41736C8.68904 4.44831 8.67676 4.47799 8.65488 4.49988ZM9.1499 4.00487L8.98493 4.16983C8.9741 4.18067 8.96124 4.18927 8.94708 4.19514C8.93293 4.20101 8.91776 4.20403 8.90243 4.20404C8.88711 4.20404 8.87193 4.20103 8.85777 4.19517C8.84361 4.18931 8.83075 4.18072 8.81991 4.16989C8.80907 4.15906 8.80047 4.1462 8.7946 4.13204C8.78873 4.11789 8.78571 4.10271 8.7857 4.08739C8.78569 4.07207 8.78871 4.05689 8.79457 4.04273C8.80043 4.02857 8.80902 4.0157 8.81985 4.00487L8.98493 3.8399C9.00694 3.81865 9.03641 3.80689 9.067 3.80715C9.09759 3.80742 9.12685 3.81969 9.14848 3.84132C9.17011 3.86295 9.18238 3.89221 9.18264 3.9228C9.18291 3.95339 9.17115 3.98286 9.1499 4.00487ZM9.64492 3.50997L9.47995 3.67493C9.46919 3.68607 9.45631 3.69496 9.44208 3.70108C9.42785 3.70719 9.41254 3.71041 9.39705 3.71054C9.38155 3.71068 9.36619 3.70773 9.35185 3.70186C9.33752 3.696 9.32449 3.68733 9.31354 3.67638C9.30258 3.66542 9.29392 3.6524 9.28805 3.63806C9.28219 3.62372 9.27923 3.60836 9.27937 3.59287C9.2795 3.57738 9.28272 3.56207 9.28884 3.54783C9.29495 3.5336 9.30384 3.52073 9.31498 3.50997L9.47983 3.34488C9.50184 3.32363 9.53131 3.31187 9.5619 3.31214C9.59249 3.3124 9.62175 3.32467 9.64338 3.3463C9.66501 3.36793 9.67728 3.3972 9.67754 3.42779C9.67781 3.45837 9.66605 3.48784 9.6448 3.50985L9.64492 3.50997ZM10.1398 2.84998C10.1617 2.87186 10.174 2.90153 10.174 2.93247C10.174 2.9634 10.1617 2.99307 10.1398 3.01495L9.97485 3.17992C9.95285 3.20117 9.92338 3.21293 9.89279 3.21266C9.8622 3.21239 9.83293 3.20012 9.8113 3.17849C9.78967 3.15686 9.7774 3.1276 9.77714 3.09701C9.77687 3.06642 9.78863 3.03695 9.80988 3.01495L9.97485 2.84998C9.99672 2.82815 10.0264 2.81588 10.0573 2.81588C10.0882 2.81588 10.1179 2.82815 10.1398 2.84998Z" fill="black"/>
</g>
</g>
<defs>
<clipPath id="clip0_641_5223">
<rect width="24" height="24" fill="white"/>
</clipPath>
<clipPath id="clip1_641_5223">
<rect width="7" height="7" fill="white" transform="translate(4 1)"/>
</clipPath>
</defs>
</svg>
