<svg width="20" height="20" viewBox="0 0 20 20" fill="none" xmlns="http://www.w3.org/2000/svg">
<g clip-path="url(#clip0_641_5067)">
<path d="M15.3136 10.0169C15.4602 10.0402 15.6036 10.0669 15.7402 10.0902C15.2946 11.571 14.5154 12.9299 13.4626 14.0624C12.4097 15.195 11.1112 16.0712 9.6669 16.6235C8.01357 18.0135 7.2769 18.9802 6.95023 19.5502C6.88877 19.656 6.80661 19.7483 6.70868 19.8216C6.61074 19.8949 6.49904 19.9477 6.38023 19.9769C6.31249 19.9927 6.24313 20.0005 6.17357 20.0002C6.00043 20.0004 5.83111 19.9494 5.6869 19.8535C3.46257 18.3413 1.77871 16.1588 0.880233 13.6235C0.83292 13.4756 0.820942 13.3186 0.845259 13.1652C0.869576 13.0118 0.929512 12.8662 1.02026 12.7401C1.11101 12.614 1.23004 12.511 1.36781 12.4392C1.50558 12.3674 1.65824 12.329 1.81357 12.3269C3.36103 12.3045 4.90493 12.1719 6.43357 11.9302C6.76312 11.2191 7.00383 10.4702 7.15023 9.70021L7.33357 9.69688H7.34023C7.50357 9.69354 11.0569 9.66688 11.2502 9.67021C11.2066 9.98746 11.142 10.3015 11.0569 10.6102C11.6165 10.364 12.1531 10.0684 12.6602 9.72688C13.0002 9.74688 13.3336 9.77021 13.6602 9.80354C12.7847 10.509 11.8009 11.0685 10.7469 11.4602C10.6471 11.6748 10.5266 11.8791 10.3869 12.0702C10.3423 12.1331 10.3232 12.2105 10.3336 12.2869C10.3476 12.3739 10.3956 12.4518 10.4669 12.5035L11.0669 12.9402C12.2675 12.54 13.4218 12.0126 14.5102 11.3669C14.731 10.9172 14.9203 10.4527 15.0769 9.97688L15.3136 10.0169ZM6.0569 19.2969C6.08235 19.3135 6.11099 19.3247 6.14099 19.3297C6.17099 19.3346 6.2017 19.3333 6.23117 19.3258C6.26063 19.3183 6.28821 19.3047 6.31215 19.286C6.33609 19.2672 6.35587 19.2437 6.37023 19.2169C6.86602 18.421 7.47078 17.6984 8.1669 17.0702C7.13354 17.2972 6.07821 17.409 5.02023 17.4035C4.6369 17.4035 4.24357 17.3835 3.84357 17.3602C4.49255 18.1007 5.23681 18.7519 6.0569 19.2969ZM6.4069 13.7102C6.3007 13.6324 6.21096 13.5343 6.14288 13.4216C6.07479 13.3088 6.02971 13.1838 6.01023 13.0535C5.98998 12.9236 5.99678 12.7908 6.03023 12.6635C4.63621 12.8607 3.23128 12.9709 1.82357 12.9935C1.77252 12.9942 1.72236 13.0069 1.67717 13.0307C1.63198 13.0544 1.59306 13.0885 1.56357 13.1302C1.53289 13.1718 1.51239 13.22 1.50371 13.2709C1.49502 13.3219 1.4984 13.3741 1.51357 13.4235C1.61396 13.7323 1.73193 14.035 1.8669 14.3302C3.5114 14.3272 5.1535 14.2046 6.78023 13.9635L6.4069 13.7102ZM7.58023 14.5102C5.80152 14.8144 4.00135 14.976 2.1969 14.9935C2.5371 15.6249 2.93076 16.226 3.37357 16.7902L3.38357 16.6569C5.40248 16.8958 7.44927 16.6794 9.37357 16.0235C9.4669 15.9902 9.55023 15.9502 9.64023 15.9135L7.58023 14.5102ZM11.7202 13.4169L12.5669 14.0302C13.0515 13.5652 13.4841 13.0489 13.8569 12.4902C13.1644 12.8426 12.4508 13.1521 11.7202 13.4169Z" fill="black"/>
<path d="M1.23999 8.53884L2.71332 8.32884C2.79261 8.31755 2.86518 8.27808 2.91776 8.21767C2.97034 8.15725 2.99941 8.07993 2.99965 7.99984C3.00168 6.05554 3.77495 4.19146 5.14978 2.81663C6.5246 1.4418 8.38869 0.668533 10.333 0.666504H11.9997C13.944 0.668533 15.808 1.4418 17.1829 2.81663C18.5577 4.19146 19.331 6.05554 19.333 7.99984V10.0978C19.3335 10.1365 19.3244 10.1747 19.3064 10.209C19.2885 10.2433 19.2623 10.2726 19.2303 10.2943C19.1982 10.3159 19.1612 10.3293 19.1227 10.3331C19.0842 10.3369 19.0454 10.3311 19.0097 10.3162C17.8532 9.86496 16.6499 9.54419 15.4223 9.35984L15.5167 8.64417C15.5639 8.29966 15.475 7.9503 15.2689 7.67024C15.0628 7.39018 14.7556 7.20148 14.4127 7.14417C12.2918 6.83159 10.1514 6.67085 8.00765 6.66317C7.83164 6.65946 7.65669 6.69125 7.49323 6.75666C7.32978 6.82206 7.18119 6.91973 7.05632 7.04384C6.92925 7.16776 6.82837 7.31594 6.75966 7.47959C6.69095 7.64323 6.65581 7.81902 6.65632 7.9965L6.66132 9.04417C3.58499 9.11517 1.48532 9.24851 0.769652 9.29917C0.756626 9.30043 0.743482 9.29875 0.731193 9.29425C0.718903 9.28975 0.707782 9.28255 0.698652 9.27317C0.688575 9.26378 0.680512 9.25243 0.674954 9.23983C0.669396 9.22722 0.666458 9.21361 0.666319 9.19984C0.670183 9.04015 0.729571 8.8868 0.83427 8.76616C0.938968 8.64553 1.08243 8.56514 1.23999 8.53884Z" fill="black"/>
<path d="M10.6664 9.00001C9.46419 9.00001 8.35142 9.01112 7.32808 9.03334L7.32308 7.99801C7.32302 7.90944 7.34068 7.82176 7.37503 7.74012C7.40938 7.65849 7.45972 7.58455 7.52308 7.52267C7.64583 7.40108 7.81164 7.33291 7.98442 7.33301H7.99642C10.1083 7.34016 12.217 7.49801 14.3064 7.80534C14.4786 7.83243 14.6331 7.92662 14.736 8.06729C14.839 8.20796 14.882 8.38368 14.8558 8.55601L14.7628 9.26367C13.4048 9.08339 12.0362 8.99529 10.6664 9.00001Z" fill="black"/>
</g>
<defs>
<clipPath id="clip0_641_5067">
<rect width="20" height="20" fill="white" transform="matrix(-1 0 0 1 20 0)"/>
</clipPath>
</defs>
</svg>
