<svg width="57" height="57" viewBox="0 0 57 57" fill="none" xmlns="http://www.w3.org/2000/svg">
<g opacity="0.6" clip-path="url(#clip0_641_7860)">
<path d="M38.779 24.1545L39.6624 21.3288C39.6624 21.3288 41.2166 20.8974 42.0362 22.5691C42.8557 24.2408 40.7109 27.6757 38.8606 27.9645C38.3476 26.6567 38.779 24.1545 38.779 24.1545Z" fill="#DCB089"/>
<path d="M18.1097 24.1545L17.2264 21.3288C17.2264 21.3288 15.6722 20.8974 14.8526 22.5691C14.033 24.2408 16.1778 27.6757 18.0281 27.9645C18.5411 26.6567 18.1097 24.1545 18.1097 24.1545Z" fill="#DCB089"/>
<path d="M20.8311 31.7334H36.16V47.8197H20.8311V31.7334Z" fill="#DCB089"/>
<path d="M20.8301 31.7331V34.327C20.8301 34.327 23.833 41.1826 29.8905 41.1826C32.7977 41.1826 34.8296 40.0408 36.1588 38.8532V31.7329H20.8301V31.7331Z" fill="#BC8866"/>
<path d="M39.6004 24.1623C39.6043 24.0443 39.6064 23.9262 39.6064 23.8082C39.6064 16.4699 41.7478 8.19036 28.7209 8.06874C28.661 8.06761 28.4299 8.06592 28.4294 8.06592C28.4294 8.06592 28.1976 8.06761 28.1376 8.06874C15.1109 8.19036 17.2522 16.4699 17.2522 23.8082C17.2522 23.9262 17.2542 24.0443 17.258 24.1623C17.2618 24.2804 17.2448 29.6235 18.0516 30.9888C18.8584 32.3541 23.6369 38.5936 28.1673 38.5936C28.1715 38.5895 28.6948 38.5893 28.6993 38.5936C33.2296 38.5936 38.0082 32.3541 38.815 30.9888C39.6218 29.6235 39.6087 24.1623 39.6087 24.1623H39.6004Z" fill="#DCB089"/>
<path d="M56.8141 51.1103C56.8141 45.5963 51.6761 43.5911 49.2324 43.0898C46.7887 42.5884 39.6455 40.7087 36.1679 40.0195C34.1439 43.3263 29.3488 44.6613 28.5004 44.8752C27.6523 44.6613 22.8569 43.3263 20.833 40.0195C17.3554 40.7088 10.2122 42.5886 7.76845 43.0898C5.32454 43.5911 0.186523 45.5963 0.186523 51.1103C4.07148 52.8647 13.3849 57.0002 28.4972 57.0002C28.4984 56.9991 28.4991 56.9981 28.5002 56.997C28.5014 56.9981 28.5021 56.9991 28.5032 57.0002C43.6156 57.0002 52.9292 52.8647 56.8141 51.1103Z" fill="#A5CCF2"/>
<path d="M49.2322 43.0898C46.7885 42.5884 39.6453 40.7087 36.1677 40.0195C34.1437 43.3263 29.3486 44.6613 28.5002 44.8752C27.6521 44.6613 22.8567 43.3263 20.8328 40.0195C17.3552 40.7088 10.212 42.5886 7.76826 43.0898C5.32454 43.5911 0.186523 45.5963 0.186523 51.1103C0.891631 51.4287 1.77833 51.8263 2.84341 52.2626C2.8921 50.4085 3.29813 49.3987 3.29813 49.3987C3.58273 48.6504 4.07994 48.0077 4.80647 47.4349C6.17345 46.3574 7.85286 45.951 8.33502 45.8521C9.45443 45.6226 11.3891 45.1478 13.6294 44.5981C15.6651 44.0987 17.902 43.5498 19.6963 43.146C22.4225 46.054 26.4765 47.2729 27.8109 47.6094C28.0372 47.6663 28.2686 47.6949 28.5002 47.6949C28.7318 47.6949 28.9634 47.6663 29.1896 47.6094C33.3636 46.5569 35.8865 44.6135 37.2818 43.1409C39.0797 43.5451 41.327 44.0964 43.371 44.5981C45.6114 45.1478 47.546 45.6226 48.6655 45.8521C49.1476 45.951 50.827 46.3574 52.194 47.4349C52.9207 48.0077 53.4177 48.6506 53.7023 49.3987C53.7023 49.3987 53.9851 50.7275 53.8794 52.3754C55.0689 51.8947 56.0485 51.456 56.8139 51.1103C56.8141 45.5963 51.6759 43.5911 49.2322 43.0898Z" fill="white"/>
<path d="M39.7929 8.31914C39.2033 6.90592 38.3887 7.00329 37.8874 7.31665C37.574 6.81531 37.6592 5.00132 37.0443 4.37159C35.851 3.14973 34.2784 4.2385 34.0026 3.18112C33.6267 1.73989 32.6242 1.48932 31.2456 1.92787C30.5562 1.61451 30.6816 -0.327873 29.6163 0.0480839C28.5565 0.422161 28.9097 0.73383 28.4571 0.737026C28.0044 0.73383 28.3575 0.422161 27.2976 0.0480839C26.2324 -0.327873 26.3577 1.61451 25.6684 1.92787C24.29 1.48932 23.2873 1.73989 22.9113 3.18112C22.6354 4.23869 21.0629 3.14973 19.8695 4.37159C19.2546 5.00113 19.3397 6.81531 19.0264 7.31665C18.525 7.00329 17.7105 6.90592 17.1208 8.31914C16.4259 10.1824 16.9592 13.1273 16.9592 13.1273C17.7226 13.485 18.6036 13.6466 20.1075 13.1273C21.6113 12.6079 24.2187 11.48 28.4291 12.3573C28.431 12.3552 28.4325 12.3534 28.4342 12.3513C28.436 12.3534 28.4375 12.3552 28.4392 12.3573C32.6496 11.48 35.257 12.6079 36.7609 13.1273C38.2647 13.6466 39.1459 13.485 39.9091 13.1273C39.9069 13.1167 39.9033 13.1071 39.901 13.0968L39.9546 13.1273C39.9548 13.1273 40.4879 10.1824 39.7929 8.31914Z" fill="#240703"/>
</g>
<defs>
<clipPath id="clip0_641_7860">
<rect width="57" height="57" fill="white"/>
</clipPath>
</defs>
</svg>
